<?xml version="1.0" encoding="utf-8"?><svg xmlns="http://www.w3.org/2000/svg" xmlns:xlink="http://www.w3.org/1999/xlink" width="1440" height="820" preserveAspectRatio="xMidYMid" viewBox="0 0 1440 820" style="z-index:1;margin-right:-2px;display:block;background-repeat-y:initial;background-repeat-x:initial;background-color:rgb(255, 255, 255);animation-play-state:paused" ><g transform="" style="animation-play-state:paused" ><linearGradient id="lg-0.3529549578341501" x1="0" x2="1" y1="0" y2="0" style="animation-play-state:paused" ><stop stop-color="#ff00ff" offset="0" style="animation-play-state:paused" ></stop>

  
<stop stop-color="#00ffff" offset="1" style="animation-play-state:paused" ></stop></linearGradient>
<path d="M0 0L0 742.9061889648438Q144 677.9718017578125 288 663.4205932617188T576 577.0400390625T864 477.93035888671875T1152 348.15380859375T1440 345.8589782714844L1440 0Z" fill="url(#lg-0.3529549578341501)" opacity="0.4" style="opacity:0.4000000059604645;animation-play-state:paused" ></path>
<path d="M0 0L0 756.196533203125Q144 691.159912109375 288 659.2185668945312T576 563.9501953125T864 460.47454833984375T1152 366.1597900390625T1440 348.23834228515625L1440 0Z" fill="url(#lg-0.3529549578341501)" opacity="0.4" style="opacity:0.4000000059604645;animation-play-state:paused" ></path>
<path d="M0 0L0 762.8487548828125Q144 725.7271118164062 288 702.857177734375T576 563.4933471679688T864 511.0321350097656T1152 383.9412536621094T1440 311.11639404296875L1440 0Z" fill="url(#lg-0.3529549578341501)" opacity="0.4" style="opacity:0.4000000059604645;animation-play-state:paused" ></path>
<path d="M0 0L0 783.7537231445312Q144 673.6251831054688 288 643.645263671875T576 528.2630004882812T864 543.4576416015625T1152 346.6228332519531T1440 292.56097412109375L1440 0Z" fill="url(#lg-0.3529549578341501)" opacity="0.4" style="opacity:0.4000000059604645;animation-play-state:paused" ></path>
<path d="M0 0L0 738.3106079101562Q144 680.5352172851562 288 665.126220703125T576 607.4390258789062T864 461.8774719238281T1152 453.4906311035156T1440 408.34893798828125L1440 0Z" fill="url(#lg-0.3529549578341501)" opacity="0.4" style="opacity:0.4000000059604645;animation-play-state:paused" ></path></g></svg>